<mxfile host="app.diagrams.net" modified="2023-09-29T12:51:30.492Z" agent="Mozilla/5.0 (Windows NT 10.0; Win64; x64) AppleWebKit/537.36 (KHTML, like Gecko) Chrome/116.0.0.0 Safari/537.36" etag="wEd1HJuSMeVF7wxGN2DD" version="22.0.0" type="device">
  <diagram name="Page-1" id="03018318-947c-dd8e-b7a3-06fadd420f32">
    <mxGraphModel dx="1434" dy="-60" grid="1" gridSize="10" guides="1" tooltips="1" connect="1" arrows="1" fold="1" page="1" pageScale="1" pageWidth="1100" pageHeight="850" background="none" math="0" shadow="0">
      <root>
        <mxCell id="0" />
        <mxCell id="1" parent="0" />
        <mxCell id="W5YgEqe16Lk0TzKixaqZ-2" value="" style="rounded=0;whiteSpace=wrap;html=1;fillColor=#000000;strokeColor=#9673a6;fillStyle=auto;gradientColor=#E39EE8;gradientDirection=north;fontFamily=Pixelify Sans;fontSource=https%3A%2F%2Ffonts.googleapis.com%2Fcss%3Ffamily%3DPixelify%2BSans;movable=0;resizable=0;rotatable=0;deletable=0;editable=0;locked=1;connectable=0;" parent="1" vertex="1">
          <mxGeometry y="850" width="1100" height="850" as="geometry" />
        </mxCell>
        <mxCell id="W5YgEqe16Lk0TzKixaqZ-4" value="Hello there" style="text;html=1;strokeColor=none;fillColor=none;align=center;verticalAlign=middle;whiteSpace=wrap;rounded=0;fontSize=53;fontFamily=Source Code Pro;fontColor=#FFFAFB;fontSource=https%3A%2F%2Ffonts.googleapis.com%2Fcss%3Ffamily%3DSource%2BCode%2BPro;strokeWidth=1;labelBackgroundColor=none;fontStyle=1" parent="1" vertex="1">
          <mxGeometry x="140" y="1110" width="470" height="80" as="geometry" />
        </mxCell>
        <mxCell id="W5YgEqe16Lk0TzKixaqZ-10" value="" style="endArrow=none;html=1;rounded=0;fontFamily=Pixelify Sans;fontSource=https%3A%2F%2Ffonts.googleapis.com%2Fcss%3Ffamily%3DPixelify%2BSans;fontSize=12;fontColor=default;strokeColor=#F5F5F5;strokeWidth=4;" parent="1" edge="1">
          <mxGeometry width="50" height="50" relative="1" as="geometry">
            <mxPoint x="130" y="1700" as="sourcePoint" />
            <mxPoint x="130" y="1090" as="targetPoint" />
          </mxGeometry>
        </mxCell>
        <mxCell id="W5YgEqe16Lk0TzKixaqZ-11" value="Let&#39;s log in to your account" style="text;html=1;strokeColor=none;fillColor=none;align=center;verticalAlign=middle;whiteSpace=wrap;rounded=0;fontSize=17;fontFamily=Source Code Pro;fontColor=#FAFAFA;fontSource=https%3A%2F%2Ffonts.googleapis.com%2Fcss%3Ffamily%3DSource%2BCode%2BPro;fontStyle=1" parent="1" vertex="1">
          <mxGeometry x="180" y="1180" width="330" height="30" as="geometry" />
        </mxCell>
        <mxCell id="W5YgEqe16Lk0TzKixaqZ-12" value="" style="endArrow=classic;html=1;rounded=0;fontFamily=Pixelify Sans;fontSource=https%3A%2F%2Ffonts.googleapis.com%2Fcss%3Ffamily%3DPixelify%2BSans;fontSize=12;fontColor=default;strokeColor=#F0F0F0;strokeWidth=4;" parent="1" edge="1">
          <mxGeometry width="50" height="50" relative="1" as="geometry">
            <mxPoint x="130" y="1090" as="sourcePoint" />
            <mxPoint x="940" y="960" as="targetPoint" />
            <Array as="points">
              <mxPoint x="130" y="1070" />
              <mxPoint x="450" y="1070" />
              <mxPoint x="620" y="1070" />
              <mxPoint x="940" y="1070" />
            </Array>
          </mxGeometry>
        </mxCell>
        <mxCell id="W5YgEqe16Lk0TzKixaqZ-13" value="" style="endArrow=classic;html=1;rounded=0;fontFamily=Pixelify Sans;fontSource=https%3A%2F%2Ffonts.googleapis.com%2Fcss%3Ffamily%3DPixelify%2BSans;fontSize=12;fontColor=default;strokeWidth=4;strokeColor=#FAFAFA;" parent="1" edge="1">
          <mxGeometry width="50" height="50" relative="1" as="geometry">
            <mxPoint x="130" y="1070" as="sourcePoint" />
            <mxPoint x="860" y="910" as="targetPoint" />
            <Array as="points">
              <mxPoint x="130" y="1020" />
              <mxPoint x="260" y="1020" />
              <mxPoint x="400" y="1020" />
              <mxPoint x="860" y="1020" />
            </Array>
          </mxGeometry>
        </mxCell>
        <mxCell id="W5YgEqe16Lk0TzKixaqZ-18" value="&amp;lt;logo&amp;gt;" style="text;html=1;strokeColor=none;fillColor=none;align=center;verticalAlign=middle;whiteSpace=wrap;rounded=0;fontSize=46;fontFamily=Source Code Pro;fontColor=#F7FBFF;fontSource=https%3A%2F%2Ffonts.googleapis.com%2Fcss%3Ffamily%3DSource%2BCode%2BPro;fontStyle=1;strokeWidth=7;" parent="1" vertex="1">
          <mxGeometry x="190" y="950" width="60" height="30" as="geometry" />
        </mxCell>
        <mxCell id="W5YgEqe16Lk0TzKixaqZ-21" value="" style="rounded=1;whiteSpace=wrap;html=1;fillStyle=auto;strokeColor=none;align=center;verticalAlign=middle;fontFamily=Pixelify Sans;fontSource=https%3A%2F%2Ffonts.googleapis.com%2Fcss%3Ffamily%3DPixelify%2BSans;fontSize=12;fontColor=default;fillColor=#E7E7E7;gradientColor=none;gradientDirection=east;shadow=0;glass=0;" parent="1" vertex="1">
          <mxGeometry x="200" y="1240" width="350" height="30" as="geometry" />
        </mxCell>
        <mxCell id="W5YgEqe16Lk0TzKixaqZ-22" value="" style="rounded=1;whiteSpace=wrap;html=1;fillStyle=auto;strokeColor=none;align=center;verticalAlign=middle;fontFamily=Pixelify Sans;fontSource=https%3A%2F%2Ffonts.googleapis.com%2Fcss%3Ffamily%3DPixelify%2BSans;fontSize=12;fontColor=default;fillColor=#E7E0E2;gradientColor=none;gradientDirection=east;shadow=0;glass=0;" parent="1" vertex="1">
          <mxGeometry x="200" y="1290" width="350" height="30" as="geometry" />
        </mxCell>
        <mxCell id="W5YgEqe16Lk0TzKixaqZ-24" value="Enter your login here" style="text;html=1;strokeColor=none;fillColor=none;align=center;verticalAlign=middle;whiteSpace=wrap;rounded=0;fontSize=12;fontFamily=Source Code Pro;fontColor=default;fontSource=https%3A%2F%2Ffonts.googleapis.com%2Fcss%3Ffamily%3DSource%2BCode%2BPro;" parent="1" vertex="1">
          <mxGeometry x="200" y="1240" width="180" height="30" as="geometry" />
        </mxCell>
        <mxCell id="W5YgEqe16Lk0TzKixaqZ-25" value="Enter your password here" style="text;html=1;strokeColor=none;fillColor=none;align=center;verticalAlign=middle;whiteSpace=wrap;rounded=0;fontSize=12;fontFamily=Source Code Pro;fontColor=default;fontSource=https%3A%2F%2Ffonts.googleapis.com%2Fcss%3Ffamily%3DSource%2BCode%2BPro;" parent="1" vertex="1">
          <mxGeometry x="210" y="1290" width="180" height="30" as="geometry" />
        </mxCell>
        <mxCell id="W5YgEqe16Lk0TzKixaqZ-26" value="" style="endArrow=classic;html=1;rounded=0;fontFamily=Pixelify Sans;fontSource=https%3A%2F%2Ffonts.googleapis.com%2Fcss%3Ffamily%3DPixelify%2BSans;fontSize=12;fontColor=default;strokeWidth=4;strokeColor=#FFF7F7;" parent="1" edge="1">
          <mxGeometry width="50" height="50" relative="1" as="geometry">
            <mxPoint x="940" y="1020" as="sourcePoint" />
            <mxPoint x="910" y="1100" as="targetPoint" />
            <Array as="points">
              <mxPoint x="1010" y="1020" />
              <mxPoint x="1010" y="1100" />
            </Array>
          </mxGeometry>
        </mxCell>
        <mxCell id="W5YgEqe16Lk0TzKixaqZ-28" value="" style="endArrow=classic;html=1;rounded=0;fontFamily=Pixelify Sans;fontSource=https%3A%2F%2Ffonts.googleapis.com%2Fcss%3Ffamily%3DPixelify%2BSans;fontSize=12;fontColor=default;strokeColor=#FFFAFA;strokeWidth=4;" parent="1" edge="1">
          <mxGeometry width="50" height="50" relative="1" as="geometry">
            <mxPoint x="860" y="970" as="sourcePoint" />
            <mxPoint x="780" y="910" as="targetPoint" />
            <Array as="points">
              <mxPoint x="780" y="970" />
            </Array>
          </mxGeometry>
        </mxCell>
        <mxCell id="W5YgEqe16Lk0TzKixaqZ-30" value="&lt;font data-font-src=&quot;https://fonts.googleapis.com/css?family=Source+Code+Pro&quot; face=&quot;Source Code Pro&quot;&gt;Sign in&lt;/font&gt;" style="rounded=1;whiteSpace=wrap;html=1;fillStyle=auto;align=center;verticalAlign=middle;fontFamily=Pixelify Sans;fontSource=https%3A%2F%2Ffonts.googleapis.com%2Fcss%3Ffamily%3DPixelify%2BSans;fontSize=12;gradientDirection=east;shadow=0;glass=0;fillColor=#b365b8;" parent="1" vertex="1">
          <mxGeometry x="200" y="1340" width="100" height="20" as="geometry" />
        </mxCell>
        <mxCell id="W5YgEqe16Lk0TzKixaqZ-31" style="edgeStyle=orthogonalEdgeStyle;rounded=0;orthogonalLoop=1;jettySize=auto;html=1;exitX=0.5;exitY=1;exitDx=0;exitDy=0;fontFamily=Pixelify Sans;fontSource=https%3A%2F%2Ffonts.googleapis.com%2Fcss%3Ffamily%3DPixelify%2BSans;fontSize=12;fontColor=default;" parent="1" source="W5YgEqe16Lk0TzKixaqZ-30" target="W5YgEqe16Lk0TzKixaqZ-30" edge="1">
          <mxGeometry relative="1" as="geometry" />
        </mxCell>
        <mxCell id="W5YgEqe16Lk0TzKixaqZ-32" value="&lt;font face=&quot;Source Code Pro&quot;&gt;Sign up&lt;/font&gt;" style="rounded=1;whiteSpace=wrap;html=1;fillStyle=auto;align=center;verticalAlign=middle;fontFamily=Pixelify Sans;fontSource=https%3A%2F%2Ffonts.googleapis.com%2Fcss%3Ffamily%3DPixelify%2BSans;fontSize=12;gradientDirection=east;shadow=0;glass=0;fillColor=none;" parent="1" vertex="1">
          <mxGeometry x="450" y="1340" width="100" height="20" as="geometry" />
        </mxCell>
        <mxCell id="W5YgEqe16Lk0TzKixaqZ-33" value="&lt;font face=&quot;Source Code Pro&quot;&gt;Forgot password?&lt;/font&gt;" style="text;html=1;strokeColor=none;fillColor=none;align=center;verticalAlign=middle;whiteSpace=wrap;rounded=0;fontSize=9;fontFamily=Pixelify Sans;fontColor=#FFFFFF;" parent="1" vertex="1">
          <mxGeometry x="320" y="1335" width="110" height="30" as="geometry" />
        </mxCell>
        <mxCell id="W5YgEqe16Lk0TzKixaqZ-37" value="&lt;font face=&quot;Source Code Pro&quot;&gt;Â©Copyright 2023&lt;/font&gt;" style="text;html=1;strokeColor=none;fillColor=none;align=center;verticalAlign=middle;whiteSpace=wrap;rounded=0;fontSize=9;fontFamily=Pixelify Sans;fontColor=#FFFFFF;" parent="1" vertex="1">
          <mxGeometry x="530" y="1660" width="110" height="30" as="geometry" />
        </mxCell>
      </root>
    </mxGraphModel>
  </diagram>
</mxfile>
